<?xml version="1.0" encoding="UTF-8" standalone="no"?>
<!DOCTYPE svg PUBLIC "-//W3C//DTD SVG 1.1//EN" "http://www.w3.org/Graphics/SVG/1.1/DTD/svg11.dtd">
<svg height="30" xmlns="http://www.w3.org/2000/svg" version="1.1" viewBox="0.00 0.00 160.00 160.00">
<path fill="#12212b" d="
  M 130.99 138.58
  L 130.96 123.93
  A 0.41 0.41 0.0 0 1 131.37 123.52
  L 145.97 123.52
  A 0.41 0.41 0.0 0 1 146.38 123.93
  L 146.26 154.32
  A 0.41 0.41 0.0 0 1 145.85 154.73
  L 16.94 154.79
  A 0.41 0.41 0.0 0 1 16.53 154.38
  L 16.49 5.20
  A 0.41 0.41 0.0 0 1 16.90 4.79
  L 146.02 4.72
  A 0.41 0.41 0.0 0 1 146.43 5.13
  L 146.34 20.63
  A 0.41 0.41 0.0 0 1 145.93 21.04
  L 32.63 21.01
  A 0.41 0.41 0.0 0 0 32.22 21.42
  L 32.28 71.28
  A 0.41 0.41 0.0 0 0 32.69 71.69
  L 146.01 71.70
  A 0.41 0.41 0.0 0 1 146.42 72.11
  L 146.26 87.11
  A 0.41 0.41 0.0 0 1 145.85 87.52
  L 32.65 87.51
  A 0.41 0.41 0.0 0 0 32.24 87.92
  L 32.21 138.58
  A 0.41 0.41 0.0 0 0 32.62 138.99
  L 130.58 138.99
  A 0.41 0.41 0.0 0 0 130.99 138.58
  Z"
/>
<rect fill="#12212b" x="46.21" y="38.04" width="79.10" height="16.20" rx="0.49"/>
<rect fill="#12212b" x="46.13" y="105.41" width="79.32" height="16.24" rx="0.63"/>
</svg>
